  0
SECTION
  2
BLOCKS
  0
ENDSEC
  0
SECTION
  2
ENTITIES
  0
LINE
  8
0
 10
0
 11
0.219
 20
10
 21
12.079
  0
LINE
  8
0
 10
0.219
 11
0.865
 20
12.079
 21
14.067
  0
LINE
  8
0
 10
0.865
 11
1.91
 20
14.067
 21
15.878
  0
LINE
  8
0
 10
1.91
 11
3.309
 20
15.878
 21
17.431
  0
LINE
  8
0
 10
3.309
 11
124.73
 20
17.431
 21
138.852
  0
LINE
  8
0
 10
124.73
 11
126.421
 20
138.852
 21
140.081
  0
LINE
  8
0
 10
126.421
 11
128.331
 20
140.081
 21
140.932
  0
LINE
  8
0
 10
128.331
 11
130.376
 20
140.932
 21
141.366
  0
LINE
  8
0
 10
130.376
 11
132.466
 20
141.366
 21
141.366
  0
LINE
  8
0
 10
132.466
 11
134.511
 20
141.366
 21
140.932
  0
LINE
  8
0
 10
134.511
 11
136.421
 20
140.932
 21
140.081
  0
LINE
  8
0
 10
136.421
 11
138.112
 20
140.081
 21
138.852
  0
LINE
  8
0
 10
138.112
 11
139.511
 20
138.852
 21
137.299
  0
LINE
  8
0
 10
139.511
 11
140.556
 20
137.299
 21
135.488
  0
LINE
  8
0
 10
140.556
 11
141.202
 20
135.488
 21
133.5
  0
LINE
  8
0
 10
141.202
 11
141.421
 20
133.5
 21
131.421
  0
LINE
  8
0
 10
141.421
 11
141.421
 20
131.421
 21
10
  0
LINE
  8
0
 10
141.421
 11
141.202
 20
10
 21
7.921
  0
LINE
  8
0
 10
141.202
 11
140.556
 20
7.921
 21
5.933
  0
LINE
  8
0
 10
140.556
 11
139.511
 20
5.933
 21
4.122
  0
LINE
  8
0
 10
139.511
 11
138.112
 20
4.122
 21
2.569
  0
LINE
  8
0
 10
138.112
 11
136.421
 20
2.569
 21
1.34
  0
LINE
  8
0
 10
136.421
 11
134.511
 20
1.34
 21
0.489
  0
LINE
  8
0
 10
134.511
 11
132.466
 20
0.489
 21
0.055
  0
LINE
  8
0
 10
132.466
 11
8.955
 20
0.055
 21
0.055
  0
LINE
  8
0
 10
8.955
 11
6.91
 20
0.055
 21
0.489
  0
LINE
  8
0
 10
6.91
 11
5
 20
0.489
 21
1.34
  0
LINE
  8
0
 10
5
 11
3.309
 20
1.34
 21
2.569
  0
LINE
  8
0
 10
3.309
 11
1.91
 20
2.569
 21
4.122
  0
LINE
  8
0
 10
1.91
 11
0.865
 20
4.122
 21
5.933
  0
LINE
  8
0
 10
0.865
 11
0.219
 20
5.933
 21
7.921
  0
LINE
  8
0
 10
0.219
 11
0
 20
7.921
 21
10
  0
LINE
  8
0
 10
22.999
 11
23.013
 20
17.678
 21
17.897
  0
LINE
  8
0
 10
23.013
 11
23.054
 20
17.897
 21
18.113
  0
LINE
  8
0
 10
23.054
 11
23.122
 20
18.113
 21
18.322
  0
LINE
  8
0
 10
23.122
 11
23.215
 20
18.322
 21
18.521
  0
LINE
  8
0
 10
23.215
 11
23.333
 20
18.521
 21
18.707
  0
LINE
  8
0
 10
23.333
 11
23.473
 20
18.707
 21
18.876
  0
LINE
  8
0
 10
23.473
 11
23.634
 20
18.876
 21
19.026
  0
LINE
  8
0
 10
23.634
 11
23.811
 20
19.026
 21
19.156
  0
LINE
  8
0
 10
23.811
 11
24.004
 20
19.156
 21
19.261
  0
LINE
  8
0
 10
24.004
 11
24.208
 20
19.261
 21
19.342
  0
LINE
  8
0
 10
24.208
 11
24.421
 20
19.342
 21
19.397
  0
LINE
  8
0
 10
24.421
 11
24.639
 20
19.397
 21
19.425
  0
LINE
  8
0
 10
24.639
 11
24.859
 20
19.425
 21
19.425
  0
LINE
  8
0
 10
24.859
 11
25.077
 20
19.425
 21
19.397
  0
LINE
  8
0
 10
25.077
 11
25.29
 20
19.397
 21
19.342
  0
LINE
  8
0
 10
25.29
 11
25.494
 20
19.342
 21
19.261
  0
LINE
  8
0
 10
25.494
 11
25.687
 20
19.261
 21
19.156
  0
LINE
  8
0
 10
25.687
 11
25.864
 20
19.156
 21
19.026
  0
LINE
  8
0
 10
25.864
 11
26.025
 20
19.026
 21
18.876
  0
LINE
  8
0
 10
26.025
 11
26.165
 20
18.876
 21
18.707
  0
LINE
  8
0
 10
26.165
 11
26.283
 20
18.707
 21
18.521
  0
LINE
  8
0
 10
26.283
 11
26.376
 20
18.521
 21
18.322
  0
LINE
  8
0
 10
26.376
 11
26.444
 20
18.322
 21
18.113
  0
LINE
  8
0
 10
26.444
 11
26.485
 20
18.113
 21
17.897
  0
LINE
  8
0
 10
26.485
 11
26.499
 20
17.897
 21
17.678
  0
LINE
  8
0
 10
26.499
 11
26.485
 20
17.678
 21
17.459
  0
LINE
  8
0
 10
26.485
 11
26.444
 20
17.459
 21
17.243
  0
LINE
  8
0
 10
26.444
 11
26.376
 20
17.243
 21
17.034
  0
LINE
  8
0
 10
26.376
 11
26.283
 20
17.034
 21
16.835
  0
LINE
  8
0
 10
26.283
 11
26.165
 20
16.835
 21
16.649
  0
LINE
  8
0
 10
26.165
 11
26.025
 20
16.649
 21
16.48
  0
LINE
  8
0
 10
26.025
 11
25.864
 20
16.48
 21
16.33
  0
LINE
  8
0
 10
25.864
 11
25.687
 20
16.33
 21
16.2
  0
LINE
  8
0
 10
25.687
 11
25.494
 20
16.2
 21
16.095
  0
LINE
  8
0
 10
25.494
 11
25.29
 20
16.095
 21
16.014
  0
LINE
  8
0
 10
25.29
 11
25.077
 20
16.014
 21
15.959
  0
LINE
  8
0
 10
25.077
 11
24.859
 20
15.959
 21
15.931
  0
LINE
  8
0
 10
24.859
 11
24.639
 20
15.931
 21
15.931
  0
LINE
  8
0
 10
24.639
 11
24.421
 20
15.931
 21
15.959
  0
LINE
  8
0
 10
24.421
 11
24.208
 20
15.959
 21
16.014
  0
LINE
  8
0
 10
24.208
 11
24.004
 20
16.014
 21
16.095
  0
LINE
  8
0
 10
24.004
 11
23.811
 20
16.095
 21
16.2
  0
LINE
  8
0
 10
23.811
 11
23.634
 20
16.2
 21
16.33
  0
LINE
  8
0
 10
23.634
 11
23.473
 20
16.33
 21
16.48
  0
LINE
  8
0
 10
23.473
 11
23.333
 20
16.48
 21
16.649
  0
LINE
  8
0
 10
23.333
 11
23.215
 20
16.649
 21
16.835
  0
LINE
  8
0
 10
23.215
 11
23.122
 20
16.835
 21
17.034
  0
LINE
  8
0
 10
23.122
 11
23.054
 20
17.034
 21
17.243
  0
LINE
  8
0
 10
23.054
 11
23.013
 20
17.243
 21
17.459
  0
LINE
  8
0
 10
23.013
 11
22.999
 20
17.459
 21
17.678
  0
LINE
  8
0
 10
62.531
 11
62.545
 20
10
 21
10.219
  0
LINE
  8
0
 10
62.545
 11
62.586
 20
10.219
 21
10.435
  0
LINE
  8
0
 10
62.586
 11
62.654
 20
10.435
 21
10.644
  0
LINE
  8
0
 10
62.654
 11
62.747
 20
10.644
 21
10.843
  0
LINE
  8
0
 10
62.747
 11
62.865
 20
10.843
 21
11.029
  0
LINE
  8
0
 10
62.865
 11
63.005
 20
11.029
 21
11.198
  0
LINE
  8
0
 10
63.005
 11
63.166
 20
11.198
 21
11.348
  0
LINE
  8
0
 10
63.166
 11
63.343
 20
11.348
 21
11.478
  0
LINE
  8
0
 10
63.343
 11
63.536
 20
11.478
 21
11.583
  0
LINE
  8
0
 10
63.536
 11
63.74
 20
11.583
 21
11.664
  0
LINE
  8
0
 10
63.74
 11
63.953
 20
11.664
 21
11.719
  0
LINE
  8
0
 10
63.953
 11
64.171
 20
11.719
 21
11.747
  0
LINE
  8
0
 10
64.171
 11
64.391
 20
11.747
 21
11.747
  0
LINE
  8
0
 10
64.391
 11
64.609
 20
11.747
 21
11.719
  0
LINE
  8
0
 10
64.609
 11
64.822
 20
11.719
 21
11.664
  0
LINE
  8
0
 10
64.822
 11
65.026
 20
11.664
 21
11.583
  0
LINE
  8
0
 10
65.026
 11
65.219
 20
11.583
 21
11.478
  0
LINE
  8
0
 10
65.219
 11
65.396
 20
11.478
 21
11.348
  0
LINE
  8
0
 10
65.396
 11
65.557
 20
11.348
 21
11.198
  0
LINE
  8
0
 10
65.557
 11
65.697
 20
11.198
 21
11.029
  0
LINE
  8
0
 10
65.697
 11
65.815
 20
11.029
 21
10.843
  0
LINE
  8
0
 10
65.815
 11
65.908
 20
10.843
 21
10.644
  0
LINE
  8
0
 10
65.908
 11
65.976
 20
10.644
 21
10.435
  0
LINE
  8
0
 10
65.976
 11
66.017
 20
10.435
 21
10.219
  0
LINE
  8
0
 10
66.017
 11
66.031
 20
10.219
 21
10
  0
LINE
  8
0
 10
66.031
 11
66.017
 20
10
 21
9.781
  0
LINE
  8
0
 10
66.017
 11
65.976
 20
9.781
 21
9.565
  0
LINE
  8
0
 10
65.976
 11
65.908
 20
9.565
 21
9.356
  0
LINE
  8
0
 10
65.908
 11
65.815
 20
9.356
 21
9.157
  0
LINE
  8
0
 10
65.815
 11
65.697
 20
9.157
 21
8.971
  0
LINE
  8
0
 10
65.697
 11
65.557
 20
8.971
 21
8.802
  0
LINE
  8
0
 10
65.557
 11
65.396
 20
8.802
 21
8.652
  0
LINE
  8
0
 10
65.396
 11
65.219
 20
8.652
 21
8.522
  0
LINE
  8
0
 10
65.219
 11
65.026
 20
8.522
 21
8.417
  0
LINE
  8
0
 10
65.026
 11
64.822
 20
8.417
 21
8.336
  0
LINE
  8
0
 10
64.822
 11
64.609
 20
8.336
 21
8.281
  0
LINE
  8
0
 10
64.609
 11
64.391
 20
8.281
 21
8.253
  0
LINE
  8
0
 10
64.391
 11
64.171
 20
8.253
 21
8.253
  0
LINE
  8
0
 10
64.171
 11
63.953
 20
8.253
 21
8.281
  0
LINE
  8
0
 10
63.953
 11
63.74
 20
8.281
 21
8.336
  0
LINE
  8
0
 10
63.74
 11
63.536
 20
8.336
 21
8.417
  0
LINE
  8
0
 10
63.536
 11
63.343
 20
8.417
 21
8.522
  0
LINE
  8
0
 10
63.343
 11
63.166
 20
8.522
 21
8.652
  0
LINE
  8
0
 10
63.166
 11
63.005
 20
8.652
 21
8.802
  0
LINE
  8
0
 10
63.005
 11
62.865
 20
8.802
 21
8.971
  0
LINE
  8
0
 10
62.865
 11
62.747
 20
8.971
 21
9.157
  0
LINE
  8
0
 10
62.747
 11
62.654
 20
9.157
 21
9.356
  0
LINE
  8
0
 10
62.654
 11
62.586
 20
9.356
 21
9.565
  0
LINE
  8
0
 10
62.586
 11
62.545
 20
9.565
 21
9.781
  0
LINE
  8
0
 10
62.545
 11
62.531
 20
9.781
 21
10
  0
LINE
  8
0
 10
121.994
 11
122.008
 20
116.673
 21
116.892
  0
LINE
  8
0
 10
122.008
 11
122.049
 20
116.892
 21
117.108
  0
LINE
  8
0
 10
122.049
 11
122.117
 20
117.108
 21
117.317
  0
LINE
  8
0
 10
122.117
 11
122.21
 20
117.317
 21
117.516
  0
LINE
  8
0
 10
122.21
 11
122.328
 20
117.516
 21
117.702
  0
LINE
  8
0
 10
122.328
 11
122.468
 20
117.702
 21
117.871
  0
LINE
  8
0
 10
122.468
 11
122.629
 20
117.871
 21
118.021
  0
LINE
  8
0
 10
122.629
 11
122.806
 20
118.021
 21
118.151
  0
LINE
  8
0
 10
122.806
 11
122.999
 20
118.151
 21
118.256
  0
LINE
  8
0
 10
122.999
 11
123.203
 20
118.256
 21
118.337
  0
LINE
  8
0
 10
123.203
 11
123.416
 20
118.337
 21
118.392
  0
LINE
  8
0
 10
123.416
 11
123.634
 20
118.392
 21
118.42
  0
LINE
  8
0
 10
123.634
 11
123.854
 20
118.42
 21
118.42
  0
LINE
  8
0
 10
123.854
 11
124.072
 20
118.42
 21
118.392
  0
LINE
  8
0
 10
124.072
 11
124.285
 20
118.392
 21
118.337
  0
LINE
  8
0
 10
124.285
 11
124.489
 20
118.337
 21
118.256
  0
LINE
  8
0
 10
124.489
 11
124.682
 20
118.256
 21
118.151
  0
LINE
  8
0
 10
124.682
 11
124.859
 20
118.151
 21
118.021
  0
LINE
  8
0
 10
124.859
 11
125.02
 20
118.021
 21
117.871
  0
LINE
  8
0
 10
125.02
 11
125.16
 20
117.871
 21
117.702
  0
LINE
  8
0
 10
125.16
 11
125.278
 20
117.702
 21
117.516
  0
LINE
  8
0
 10
125.278
 11
125.371
 20
117.516
 21
117.317
  0
LINE
  8
0
 10
125.371
 11
125.439
 20
117.317
 21
117.108
  0
LINE
  8
0
 10
125.439
 11
125.48
 20
117.108
 21
116.892
  0
LINE
  8
0
 10
125.48
 11
125.494
 20
116.892
 21
116.673
  0
LINE
  8
0
 10
125.494
 11
125.48
 20
116.673
 21
116.454
  0
LINE
  8
0
 10
125.48
 11
125.439
 20
116.454
 21
116.238
  0
LINE
  8
0
 10
125.439
 11
125.371
 20
116.238
 21
116.029
  0
LINE
  8
0
 10
125.371
 11
125.278
 20
116.029
 21
115.83
  0
LINE
  8
0
 10
125.278
 11
125.16
 20
115.83
 21
115.644
  0
LINE
  8
0
 10
125.16
 11
125.02
 20
115.644
 21
115.475
  0
LINE
  8
0
 10
125.02
 11
124.859
 20
115.475
 21
115.325
  0
LINE
  8
0
 10
124.859
 11
124.682
 20
115.325
 21
115.195
  0
LINE
  8
0
 10
124.682
 11
124.489
 20
115.195
 21
115.09
  0
LINE
  8
0
 10
124.489
 11
124.285
 20
115.09
 21
115.009
  0
LINE
  8
0
 10
124.285
 11
124.072
 20
115.009
 21
114.954
  0
LINE
  8
0
 10
124.072
 11
123.854
 20
114.954
 21
114.926
  0
LINE
  8
0
 10
123.854
 11
123.634
 20
114.926
 21
114.926
  0
LINE
  8
0
 10
123.634
 11
123.416
 20
114.926
 21
114.954
  0
LINE
  8
0
 10
123.416
 11
123.203
 20
114.954
 21
115.009
  0
LINE
  8
0
 10
123.203
 11
122.999
 20
115.009
 21
115.09
  0
LINE
  8
0
 10
122.999
 11
122.806
 20
115.09
 21
115.195
  0
LINE
  8
0
 10
122.806
 11
122.629
 20
115.195
 21
115.325
  0
LINE
  8
0
 10
122.629
 11
122.468
 20
115.325
 21
115.475
  0
LINE
  8
0
 10
122.468
 11
122.328
 20
115.475
 21
115.644
  0
LINE
  8
0
 10
122.328
 11
122.21
 20
115.644
 21
115.83
  0
LINE
  8
0
 10
122.21
 11
122.117
 20
115.83
 21
116.029
  0
LINE
  8
0
 10
122.117
 11
122.049
 20
116.029
 21
116.238
  0
LINE
  8
0
 10
122.049
 11
122.008
 20
116.238
 21
116.454
  0
LINE
  8
0
 10
122.008
 11
121.994
 20
116.454
 21
116.673
  0
LINE
  8
0
 10
122.531
 11
122.545
 20
10
 21
10.219
  0
LINE
  8
0
 10
122.545
 11
122.586
 20
10.219
 21
10.435
  0
LINE
  8
0
 10
122.586
 11
122.654
 20
10.435
 21
10.644
  0
LINE
  8
0
 10
122.654
 11
122.747
 20
10.644
 21
10.843
  0
LINE
  8
0
 10
122.747
 11
122.865
 20
10.843
 21
11.029
  0
LINE
  8
0
 10
122.865
 11
123.005
 20
11.029
 21
11.198
  0
LINE
  8
0
 10
123.005
 11
123.166
 20
11.198
 21
11.348
  0
LINE
  8
0
 10
123.166
 11
123.343
 20
11.348
 21
11.478
  0
LINE
  8
0
 10
123.343
 11
123.536
 20
11.478
 21
11.583
  0
LINE
  8
0
 10
123.536
 11
123.74
 20
11.583
 21
11.664
  0
LINE
  8
0
 10
123.74
 11
123.953
 20
11.664
 21
11.719
  0
LINE
  8
0
 10
123.953
 11
124.171
 20
11.719
 21
11.747
  0
LINE
  8
0
 10
124.171
 11
124.391
 20
11.747
 21
11.747
  0
LINE
  8
0
 10
124.391
 11
124.609
 20
11.747
 21
11.719
  0
LINE
  8
0
 10
124.609
 11
124.822
 20
11.719
 21
11.664
  0
LINE
  8
0
 10
124.822
 11
125.026
 20
11.664
 21
11.583
  0
LINE
  8
0
 10
125.026
 11
125.219
 20
11.583
 21
11.478
  0
LINE
  8
0
 10
125.219
 11
125.396
 20
11.478
 21
11.348
  0
LINE
  8
0
 10
125.396
 11
125.557
 20
11.348
 21
11.198
  0
LINE
  8
0
 10
125.557
 11
125.697
 20
11.198
 21
11.029
  0
LINE
  8
0
 10
125.697
 11
125.815
 20
11.029
 21
10.843
  0
LINE
  8
0
 10
125.815
 11
125.908
 20
10.843
 21
10.644
  0
LINE
  8
0
 10
125.908
 11
125.976
 20
10.644
 21
10.435
  0
LINE
  8
0
 10
125.976
 11
126.017
 20
10.435
 21
10.219
  0
LINE
  8
0
 10
126.017
 11
126.031
 20
10.219
 21
10
  0
LINE
  8
0
 10
126.031
 11
126.017
 20
10
 21
9.781
  0
LINE
  8
0
 10
126.017
 11
125.976
 20
9.781
 21
9.565
  0
LINE
  8
0
 10
125.976
 11
125.908
 20
9.565
 21
9.356
  0
LINE
  8
0
 10
125.908
 11
125.815
 20
9.356
 21
9.157
  0
LINE
  8
0
 10
125.815
 11
125.697
 20
9.157
 21
8.971
  0
LINE
  8
0
 10
125.697
 11
125.557
 20
8.971
 21
8.802
  0
LINE
  8
0
 10
125.557
 11
125.396
 20
8.802
 21
8.652
  0
LINE
  8
0
 10
125.396
 11
125.219
 20
8.652
 21
8.522
  0
LINE
  8
0
 10
125.219
 11
125.026
 20
8.522
 21
8.417
  0
LINE
  8
0
 10
125.026
 11
124.822
 20
8.417
 21
8.336
  0
LINE
  8
0
 10
124.822
 11
124.609
 20
8.336
 21
8.281
  0
LINE
  8
0
 10
124.609
 11
124.391
 20
8.281
 21
8.253
  0
LINE
  8
0
 10
124.391
 11
124.171
 20
8.253
 21
8.253
  0
LINE
  8
0
 10
124.171
 11
123.953
 20
8.253
 21
8.281
  0
LINE
  8
0
 10
123.953
 11
123.74
 20
8.281
 21
8.336
  0
LINE
  8
0
 10
123.74
 11
123.536
 20
8.336
 21
8.417
  0
LINE
  8
0
 10
123.536
 11
123.343
 20
8.417
 21
8.522
  0
LINE
  8
0
 10
123.343
 11
123.166
 20
8.522
 21
8.652
  0
LINE
  8
0
 10
123.166
 11
123.005
 20
8.652
 21
8.802
  0
LINE
  8
0
 10
123.005
 11
122.865
 20
8.802
 21
8.971
  0
LINE
  8
0
 10
122.865
 11
122.747
 20
8.971
 21
9.157
  0
LINE
  8
0
 10
122.747
 11
122.654
 20
9.157
 21
9.356
  0
LINE
  8
0
 10
122.654
 11
122.586
 20
9.356
 21
9.565
  0
LINE
  8
0
 10
122.586
 11
122.545
 20
9.565
 21
9.781
  0
LINE
  8
0
 10
122.545
 11
122.531
 20
9.781
 21
10
  0
ENDSEC
  0
SECTION
  2
OBJECTS
  0
DICTIONARY
  0
ENDSEC
  0
EOF
